<?xml version="1.0" encoding="utf-8"?>
<!-- Generator: Adobe Illustrator 19.2.0, SVG Export Plug-In . SVG Version: 6.00 Build 0)  -->
<!DOCTYPE svg PUBLIC "-//W3C//DTD SVG 1.1//EN" "http://www.w3.org/Graphics/SVG/1.1/DTD/svg11.dtd">
<svg version="1.1" id="Layer_1" xmlns="http://www.w3.org/2000/svg" xmlns:xlink="http://www.w3.org/1999/xlink" x="0px" y="0px"
	 viewBox="0 0 72 72" enable-background="new 0 0 72 72" xml:space="preserve">
<title>Rocket</title>
<desc>A simple, flat illustration of a rocket. Its color changes as the screen width changes.</desc>
<path fill="#FF6240" d="M48.2,36.5c-0.6,5.1-2.1,10.1-4.3,14.8c1.2,0.7,2.2,1.9,2.7,3.2c0.8,2.9-1.3,5.5,0.6,6.4
	c1.4,0.6,4.5-1.3,6.8-12.1C55.9,40.1,50.4,37.3,48.2,36.5L48.2,36.5z M28.3,51.2c-2.2-4.7-3.7-9.6-4.3-14.8c-2.2,0.7-7.9,3.5-6,12.3
	c2.3,10.8,5.4,12.7,6.8,12.1c1.9-0.9-0.1-3.5,0.6-6.4C26,53.1,27,52,28.3,51.2L28.3,51.2z M34.2,55.3c0.2,3.2,1,5.5,2,5.5
	s1.9-2.3,2-5.5H34.2z M36.2,11H36c-14.2,7.4-11,25.2-11,25.2c0.7,6.4,2.9,12.5,6.2,18H41c3.4-5.5,5.5-11.6,6.2-18
	C47.2,36.2,50.3,18.4,36.2,11z M36.1,33.9c-1.2,0-2.2-1-2.2-2.2c0-1.2,1-2.2,2.2-2.2c1.2,0,2.2,1,2.2,2.2
	C38.3,32.9,37.3,33.9,36.1,33.9C36.1,33.9,36.1,33.9,36.1,33.9z M36,25.3c-2.1,0-3.8-1.7-3.8-3.8s1.7-3.8,3.8-3.8
	c2.1,0,3.8,1.7,3.8,3.8S38.1,25.3,36,25.3L36,25.3z"/>
</svg>
